<mxfile host="65bd71144e">
    <diagram name="Page-1" id="GfA2yV0lj326bmlCq0dj">
        <mxGraphModel dx="2487" dy="1410" grid="1" gridSize="10" guides="1" tooltips="1" connect="1" arrows="1" fold="1" page="1" pageScale="1" pageWidth="827" pageHeight="1169" math="0" shadow="0">
            <root>
                <mxCell id="0"/>
                <mxCell id="1" parent="0"/>
                <mxCell id="dLEeH7XtWC_-MkwcOJhK-49" value="" style="rounded=0;whiteSpace=wrap;html=1;movable=1;resizable=1;rotatable=1;deletable=1;editable=1;locked=0;connectable=1;" parent="1" vertex="1">
                    <mxGeometry x="850" y="490" width="1540" height="480" as="geometry"/>
                </mxCell>
                <mxCell id="dLEeH7XtWC_-MkwcOJhK-95" style="edgeStyle=orthogonalEdgeStyle;rounded=0;orthogonalLoop=1;jettySize=auto;html=1;exitX=1;exitY=0.5;exitDx=0;exitDy=0;entryX=0;entryY=0.5;entryDx=0;entryDy=0;" parent="1" source="dLEeH7XtWC_-MkwcOJhK-70" target="dLEeH7XtWC_-MkwcOJhK-77" edge="1">
                    <mxGeometry relative="1" as="geometry"/>
                </mxCell>
                <mxCell id="dLEeH7XtWC_-MkwcOJhK-70" value="" style="rounded=0;whiteSpace=wrap;html=1;fontStyle=1" parent="1" vertex="1">
                    <mxGeometry x="1210" y="615" width="330" height="225" as="geometry"/>
                </mxCell>
                <mxCell id="dLEeH7XtWC_-MkwcOJhK-94" style="edgeStyle=orthogonalEdgeStyle;rounded=0;orthogonalLoop=1;jettySize=auto;html=1;exitX=1;exitY=0.5;exitDx=0;exitDy=0;entryX=0;entryY=0.5;entryDx=0;entryDy=0;" parent="1" source="dLEeH7XtWC_-MkwcOJhK-46" target="dLEeH7XtWC_-MkwcOJhK-70" edge="1">
                    <mxGeometry relative="1" as="geometry"/>
                </mxCell>
                <mxCell id="dLEeH7XtWC_-MkwcOJhK-46" value="" style="rounded=0;whiteSpace=wrap;html=1;movable=1;resizable=1;rotatable=1;deletable=1;editable=1;locked=0;connectable=1;" parent="1" vertex="1">
                    <mxGeometry x="1023" y="595" width="160" height="265" as="geometry"/>
                </mxCell>
                <mxCell id="dLEeH7XtWC_-MkwcOJhK-6" value="Z" style="edgeStyle=orthogonalEdgeStyle;rounded=0;orthogonalLoop=1;jettySize=auto;html=1;exitX=0.5;exitY=1;exitDx=0;exitDy=0;entryX=0.5;entryY=0;entryDx=0;entryDy=0;" parent="1" source="dLEeH7XtWC_-MkwcOJhK-2" target="dLEeH7XtWC_-MkwcOJhK-3" edge="1">
                    <mxGeometry relative="1" as="geometry"/>
                </mxCell>
                <mxCell id="dLEeH7XtWC_-MkwcOJhK-2" value="&lt;div&gt;Fundamenal Aims &amp;amp; Objectives&lt;/div&gt;" style="rounded=0;whiteSpace=wrap;html=1;" parent="1" vertex="1">
                    <mxGeometry x="20" y="10" width="120" height="60" as="geometry"/>
                </mxCell>
                <mxCell id="dLEeH7XtWC_-MkwcOJhK-12" style="edgeStyle=orthogonalEdgeStyle;rounded=0;orthogonalLoop=1;jettySize=auto;html=1;exitX=1;exitY=0.5;exitDx=0;exitDy=0;entryX=0;entryY=0.5;entryDx=0;entryDy=0;" parent="1" source="dLEeH7XtWC_-MkwcOJhK-3" target="dLEeH7XtWC_-MkwcOJhK-11" edge="1">
                    <mxGeometry relative="1" as="geometry"/>
                </mxCell>
                <mxCell id="dLEeH7XtWC_-MkwcOJhK-3" value="Player Starts Game" style="rounded=1;whiteSpace=wrap;html=1;" parent="1" vertex="1">
                    <mxGeometry x="20" y="150" width="120" height="60" as="geometry"/>
                </mxCell>
                <mxCell id="dLEeH7XtWC_-MkwcOJhK-103" style="edgeStyle=orthogonalEdgeStyle;rounded=0;orthogonalLoop=1;jettySize=auto;html=1;exitX=0.5;exitY=1;exitDx=0;exitDy=0;entryX=0.5;entryY=0;entryDx=0;entryDy=0;" parent="1" source="dLEeH7XtWC_-MkwcOJhK-4" target="dLEeH7XtWC_-MkwcOJhK-5" edge="1">
                    <mxGeometry relative="1" as="geometry"/>
                </mxCell>
                <mxCell id="dLEeH7XtWC_-MkwcOJhK-4" value="Player Solves Puzzle(s)" style="rounded=1;whiteSpace=wrap;html=1;" parent="1" vertex="1">
                    <mxGeometry x="20" y="370" width="120" height="60" as="geometry"/>
                </mxCell>
                <mxCell id="dLEeH7XtWC_-MkwcOJhK-5" value="Player Wins Game" style="rounded=1;whiteSpace=wrap;html=1;" parent="1" vertex="1">
                    <mxGeometry x="20" y="1090" width="120" height="60" as="geometry"/>
                </mxCell>
                <mxCell id="dLEeH7XtWC_-MkwcOJhK-14" style="edgeStyle=orthogonalEdgeStyle;rounded=0;orthogonalLoop=1;jettySize=auto;html=1;exitX=1;exitY=0.5;exitDx=0;exitDy=0;entryX=0;entryY=0.5;entryDx=0;entryDy=0;" parent="1" source="dLEeH7XtWC_-MkwcOJhK-11" target="dLEeH7XtWC_-MkwcOJhK-13" edge="1">
                    <mxGeometry relative="1" as="geometry"/>
                </mxCell>
                <mxCell id="dLEeH7XtWC_-MkwcOJhK-11" value="Give instructions to player" style="rounded=1;whiteSpace=wrap;html=1;" parent="1" vertex="1">
                    <mxGeometry x="170" y="150" width="120" height="60" as="geometry"/>
                </mxCell>
                <mxCell id="dLEeH7XtWC_-MkwcOJhK-15" style="edgeStyle=orthogonalEdgeStyle;rounded=0;orthogonalLoop=1;jettySize=auto;html=1;exitX=0.5;exitY=1;exitDx=0;exitDy=0;entryX=0.5;entryY=0;entryDx=0;entryDy=0;" parent="1" source="dLEeH7XtWC_-MkwcOJhK-13" target="dLEeH7XtWC_-MkwcOJhK-4" edge="1">
                    <mxGeometry relative="1" as="geometry">
                        <mxPoint x="80" y="610" as="targetPoint"/>
                        <Array as="points">
                            <mxPoint x="380" y="240"/>
                            <mxPoint x="80" y="240"/>
                        </Array>
                    </mxGeometry>
                </mxCell>
                <mxCell id="dLEeH7XtWC_-MkwcOJhK-13" value="Player proceeds to puzzles" style="rounded=1;whiteSpace=wrap;html=1;" parent="1" vertex="1">
                    <mxGeometry x="320" y="150" width="120" height="60" as="geometry"/>
                </mxCell>
                <mxCell id="dLEeH7XtWC_-MkwcOJhK-28" value="&lt;div&gt;Puzzle Complete&lt;/div&gt;" style="rounded=0;whiteSpace=wrap;html=1;" parent="1" vertex="1">
                    <mxGeometry x="2420" y="698" width="120" height="60" as="geometry"/>
                </mxCell>
                <mxCell id="dLEeH7XtWC_-MkwcOJhK-33" style="edgeStyle=orthogonalEdgeStyle;rounded=0;orthogonalLoop=1;jettySize=auto;html=1;exitX=1;exitY=0.5;exitDx=0;exitDy=0;entryX=0;entryY=0.5;entryDx=0;entryDy=0;" parent="1" source="dLEeH7XtWC_-MkwcOJhK-29" target="dLEeH7XtWC_-MkwcOJhK-28" edge="1">
                    <mxGeometry relative="1" as="geometry"/>
                </mxCell>
                <mxCell id="dLEeH7XtWC_-MkwcOJhK-29" value="The door is open" style="rounded=0;whiteSpace=wrap;html=1;" parent="1" vertex="1">
                    <mxGeometry x="2240" y="698" width="120" height="60" as="geometry"/>
                </mxCell>
                <mxCell id="dLEeH7XtWC_-MkwcOJhK-85" style="edgeStyle=orthogonalEdgeStyle;rounded=0;orthogonalLoop=1;jettySize=auto;html=1;exitX=1;exitY=0.5;exitDx=0;exitDy=0;entryX=0;entryY=0.5;entryDx=0;entryDy=0;" parent="1" source="dLEeH7XtWC_-MkwcOJhK-31" target="dLEeH7XtWC_-MkwcOJhK-45" edge="1">
                    <mxGeometry relative="1" as="geometry"/>
                </mxCell>
                <mxCell id="dLEeH7XtWC_-MkwcOJhK-86" style="edgeStyle=orthogonalEdgeStyle;rounded=0;orthogonalLoop=1;jettySize=auto;html=1;exitX=1;exitY=0.5;exitDx=0;exitDy=0;entryX=0;entryY=0.5;entryDx=0;entryDy=0;" parent="1" source="dLEeH7XtWC_-MkwcOJhK-31" target="lfsXM8BVKZFqsffCW_9Q-21" edge="1">
                    <mxGeometry relative="1" as="geometry"/>
                </mxCell>
                <mxCell id="dLEeH7XtWC_-MkwcOJhK-31" value="The game / main puzzle starts" style="rounded=0;whiteSpace=wrap;html=1;" parent="1" vertex="1">
                    <mxGeometry x="650" y="695" width="120" height="60" as="geometry"/>
                </mxCell>
                <mxCell id="dLEeH7XtWC_-MkwcOJhK-35" style="edgeStyle=orthogonalEdgeStyle;rounded=0;orthogonalLoop=1;jettySize=auto;html=1;exitX=1;exitY=0.5;exitDx=0;exitDy=0;entryX=0;entryY=0.5;entryDx=0;entryDy=0;" parent="1" source="dLEeH7XtWC_-MkwcOJhK-34" target="dLEeH7XtWC_-MkwcOJhK-29" edge="1">
                    <mxGeometry relative="1" as="geometry"/>
                </mxCell>
                <mxCell id="dLEeH7XtWC_-MkwcOJhK-34" value="&lt;div&gt;Player uses Key on Door&lt;/div&gt;" style="rounded=0;whiteSpace=wrap;html=1;" parent="1" vertex="1">
                    <mxGeometry x="2100" y="698" width="120" height="60" as="geometry"/>
                </mxCell>
                <mxCell id="dLEeH7XtWC_-MkwcOJhK-38" value="Player gets safe Combo from Folder" style="rounded=0;whiteSpace=wrap;html=1;" parent="1" vertex="1">
                    <mxGeometry x="1390" y="640" width="120" height="60" as="geometry"/>
                </mxCell>
                <mxCell id="dLEeH7XtWC_-MkwcOJhK-41" value="Folder" style="rounded=0;whiteSpace=wrap;html=1;movable=1;resizable=1;rotatable=1;deletable=1;editable=1;locked=0;connectable=1;" parent="1" vertex="1">
                    <mxGeometry x="1043" y="695" width="120" height="60" as="geometry"/>
                </mxCell>
                <mxCell id="dLEeH7XtWC_-MkwcOJhK-43" value="Exit" style="rounded=0;whiteSpace=wrap;html=1;movable=1;resizable=1;rotatable=1;deletable=1;editable=1;locked=0;connectable=1;" parent="1" vertex="1">
                    <mxGeometry x="1043" y="617.5" width="120" height="60" as="geometry"/>
                </mxCell>
                <mxCell id="dLEeH7XtWC_-MkwcOJhK-44" value="&lt;div&gt;Safe&lt;/div&gt;" style="rounded=0;whiteSpace=wrap;html=1;movable=1;resizable=1;rotatable=1;deletable=1;editable=1;locked=0;connectable=1;" parent="1" vertex="1">
                    <mxGeometry x="1043" y="770" width="120" height="60" as="geometry"/>
                </mxCell>
                <mxCell id="dLEeH7XtWC_-MkwcOJhK-47" value="Player sees safe is locked" style="rounded=0;whiteSpace=wrap;html=1;" parent="1" vertex="1">
                    <mxGeometry x="1220" y="690" width="120" height="60" as="geometry"/>
                </mxCell>
                <mxCell id="dLEeH7XtWC_-MkwcOJhK-90" style="edgeStyle=orthogonalEdgeStyle;rounded=0;orthogonalLoop=1;jettySize=auto;html=1;exitX=1;exitY=0.5;exitDx=0;exitDy=0;entryX=0;entryY=0.5;entryDx=0;entryDy=0;" parent="1" source="dLEeH7XtWC_-MkwcOJhK-45" target="dLEeH7XtWC_-MkwcOJhK-46" edge="1">
                    <mxGeometry relative="1" as="geometry">
                        <Array as="points">
                            <mxPoint x="1003" y="640"/>
                            <mxPoint x="1003" y="728"/>
                        </Array>
                    </mxGeometry>
                </mxCell>
                <mxCell id="dLEeH7XtWC_-MkwcOJhK-45" value="Player is prompted to escape" style="rounded=0;whiteSpace=wrap;html=1;" parent="1" vertex="1">
                    <mxGeometry x="870" y="610" width="120" height="60" as="geometry"/>
                </mxCell>
                <mxCell id="dLEeH7XtWC_-MkwcOJhK-51" value="Main Puzzle" style="text;strokeColor=none;fillColor=none;align=left;verticalAlign=middle;spacingLeft=4;spacingRight=4;overflow=hidden;points=[[0,0.5],[1,0.5]];portConstraint=eastwest;rotatable=0;whiteSpace=wrap;html=1;" parent="1" vertex="1">
                    <mxGeometry x="870" y="510" width="160" height="30" as="geometry"/>
                </mxCell>
                <mxCell id="fkQmUBQ5UeqzKAua68R4-10" value="&lt;b style=&quot;font-size: 12px;&quot;&gt;&lt;font style=&quot;font-size: 36px;&quot;&gt;FIrst iteration will be text based&amp;nbsp;&lt;/font&gt;&lt;/b&gt;" style="shape=callout;whiteSpace=wrap;html=1;perimeter=calloutPerimeter;fillColor=#62BD35;" parent="1" vertex="1">
                    <mxGeometry x="540" y="20" width="270" height="156" as="geometry"/>
                </mxCell>
                <mxCell id="dLEeH7XtWC_-MkwcOJhK-91" style="edgeStyle=orthogonalEdgeStyle;rounded=0;orthogonalLoop=1;jettySize=auto;html=1;exitX=1;exitY=0.5;exitDx=0;exitDy=0;entryX=0;entryY=0.5;entryDx=0;entryDy=0;" parent="1" source="lfsXM8BVKZFqsffCW_9Q-21" target="dLEeH7XtWC_-MkwcOJhK-46" edge="1">
                    <mxGeometry relative="1" as="geometry">
                        <Array as="points">
                            <mxPoint x="1003" y="815"/>
                            <mxPoint x="1003" y="728"/>
                        </Array>
                    </mxGeometry>
                </mxCell>
                <mxCell id="lfsXM8BVKZFqsffCW_9Q-21" value="Timer starts" style="rounded=0;whiteSpace=wrap;html=1;" parent="1" vertex="1">
                    <mxGeometry x="870" y="785" width="120" height="60" as="geometry"/>
                </mxCell>
                <mxCell id="dLEeH7XtWC_-MkwcOJhK-71" value="Puzzle 1 (Folder)" style="text;html=1;strokeColor=none;fillColor=none;align=center;verticalAlign=middle;whiteSpace=wrap;rounded=0;" parent="1" vertex="1">
                    <mxGeometry x="1220" y="630" width="60" height="30" as="geometry"/>
                </mxCell>
                <mxCell id="dLEeH7XtWC_-MkwcOJhK-97" style="edgeStyle=orthogonalEdgeStyle;rounded=0;orthogonalLoop=1;jettySize=auto;html=1;exitX=1;exitY=0.5;exitDx=0;exitDy=0;entryX=0;entryY=0.5;entryDx=0;entryDy=0;" parent="1" source="dLEeH7XtWC_-MkwcOJhK-72" target="dLEeH7XtWC_-MkwcOJhK-34" edge="1">
                    <mxGeometry relative="1" as="geometry"/>
                </mxCell>
                <mxCell id="dLEeH7XtWC_-MkwcOJhK-72" value="" style="rounded=0;whiteSpace=wrap;html=1;fontStyle=1" parent="1" vertex="1">
                    <mxGeometry x="1750" y="615.5" width="330" height="225" as="geometry"/>
                </mxCell>
                <mxCell id="dLEeH7XtWC_-MkwcOJhK-73" value="Player has to solve something inside to find room code" style="rounded=0;whiteSpace=wrap;html=1;" parent="1" vertex="1">
                    <mxGeometry x="1930" y="700" width="120" height="60" as="geometry"/>
                </mxCell>
                <mxCell id="dLEeH7XtWC_-MkwcOJhK-74" value="Player opens Safe" style="rounded=0;whiteSpace=wrap;html=1;" parent="1" vertex="1">
                    <mxGeometry x="1350" y="750" width="120" height="60" as="geometry"/>
                </mxCell>
                <mxCell id="dLEeH7XtWC_-MkwcOJhK-75" value="Puzzle 2&lt;br&gt;(Safe)" style="text;html=1;strokeColor=none;fillColor=none;align=center;verticalAlign=middle;whiteSpace=wrap;rounded=0;" parent="1" vertex="1">
                    <mxGeometry x="1760" y="630" width="60" height="30" as="geometry"/>
                </mxCell>
                <mxCell id="dLEeH7XtWC_-MkwcOJhK-96" style="edgeStyle=orthogonalEdgeStyle;rounded=0;orthogonalLoop=1;jettySize=auto;html=1;exitX=1;exitY=0.5;exitDx=0;exitDy=0;entryX=0;entryY=0.5;entryDx=0;entryDy=0;" parent="1" source="dLEeH7XtWC_-MkwcOJhK-77" target="dLEeH7XtWC_-MkwcOJhK-72" edge="1">
                    <mxGeometry relative="1" as="geometry"/>
                </mxCell>
                <mxCell id="dLEeH7XtWC_-MkwcOJhK-77" value="" style="rounded=0;whiteSpace=wrap;html=1;" parent="1" vertex="1">
                    <mxGeometry x="1570" y="593" width="160" height="270" as="geometry"/>
                </mxCell>
                <mxCell id="dLEeH7XtWC_-MkwcOJhK-78" value="Folder" style="rounded=0;whiteSpace=wrap;html=1;" parent="1" vertex="1">
                    <mxGeometry x="1590" y="700" width="120" height="60" as="geometry"/>
                </mxCell>
                <mxCell id="dLEeH7XtWC_-MkwcOJhK-79" value="Exit" style="rounded=0;whiteSpace=wrap;html=1;" parent="1" vertex="1">
                    <mxGeometry x="1590" y="610" width="120" height="60" as="geometry"/>
                </mxCell>
                <mxCell id="dLEeH7XtWC_-MkwcOJhK-80" value="&lt;div&gt;Open Safe&lt;/div&gt;" style="rounded=0;whiteSpace=wrap;html=1;" parent="1" vertex="1">
                    <mxGeometry x="1590" y="785" width="120" height="60" as="geometry"/>
                </mxCell>
                <mxCell id="dLEeH7XtWC_-MkwcOJhK-81" value="Room State" style="text;html=1;strokeColor=none;fillColor=none;align=center;verticalAlign=middle;whiteSpace=wrap;rounded=0;movable=1;resizable=1;rotatable=1;deletable=1;editable=1;locked=0;connectable=1;" parent="1" vertex="1">
                    <mxGeometry x="1023" y="561" width="60" height="30" as="geometry"/>
                </mxCell>
                <mxCell id="dLEeH7XtWC_-MkwcOJhK-82" value="Room State" style="text;html=1;strokeColor=none;fillColor=none;align=center;verticalAlign=middle;whiteSpace=wrap;rounded=0;" parent="1" vertex="1">
                    <mxGeometry x="1570" y="560" width="60" height="30" as="geometry"/>
                </mxCell>
                <mxCell id="dLEeH7XtWC_-MkwcOJhK-98" value="Player introduced to game" style="text;html=1;strokeColor=none;fillColor=none;align=center;verticalAlign=middle;whiteSpace=wrap;rounded=0;" parent="1" vertex="1">
                    <mxGeometry x="900" y="910" width="60" height="30" as="geometry"/>
                </mxCell>
                <mxCell id="dLEeH7XtWC_-MkwcOJhK-99" value="State of the game world" style="text;html=1;strokeColor=none;fillColor=none;align=center;verticalAlign=middle;whiteSpace=wrap;rounded=0;" parent="1" vertex="1">
                    <mxGeometry x="1073" y="910" width="60" height="30" as="geometry"/>
                </mxCell>
                <mxCell id="dLEeH7XtWC_-MkwcOJhK-100" value="Game world changed after Puzzle 1 completed" style="text;html=1;strokeColor=none;fillColor=none;align=center;verticalAlign=middle;whiteSpace=wrap;rounded=0;" parent="1" vertex="1">
                    <mxGeometry x="1595" y="910" width="110" height="30" as="geometry"/>
                </mxCell>
                <mxCell id="dLEeH7XtWC_-MkwcOJhK-102" value="Player sees they can't open the safe without a combination, needs to find combination" style="text;html=1;strokeColor=none;fillColor=none;align=center;verticalAlign=middle;whiteSpace=wrap;rounded=0;" parent="1" vertex="1">
                    <mxGeometry x="1220" y="910" width="300" height="30" as="geometry"/>
                </mxCell>
                <mxCell id="fkQmUBQ5UeqzKAua68R4-34" style="edgeStyle=orthogonalEdgeStyle;rounded=0;orthogonalLoop=1;jettySize=auto;html=1;exitX=1;exitY=0.5;exitDx=0;exitDy=0;entryX=0;entryY=0.5;entryDx=0;entryDy=0;" parent="1" source="fkQmUBQ5UeqzKAua68R4-36" target="fkQmUBQ5UeqzKAua68R4-38" edge="1">
                    <mxGeometry relative="1" as="geometry"/>
                </mxCell>
                <mxCell id="fkQmUBQ5UeqzKAua68R4-35" style="edgeStyle=orthogonalEdgeStyle;rounded=0;orthogonalLoop=1;jettySize=auto;html=1;exitX=1;exitY=0.5;exitDx=0;exitDy=0;entryX=0;entryY=0.5;entryDx=0;entryDy=0;" parent="1" source="fkQmUBQ5UeqzKAua68R4-36" target="fkQmUBQ5UeqzKAua68R4-40" edge="1">
                    <mxGeometry relative="1" as="geometry"/>
                </mxCell>
                <mxCell id="fkQmUBQ5UeqzKAua68R4-36" value="The game / main puzzle starts" style="rounded=0;whiteSpace=wrap;html=1;" parent="1" vertex="1">
                    <mxGeometry x="630" y="1365" width="120" height="60" as="geometry"/>
                </mxCell>
                <mxCell id="fkQmUBQ5UeqzKAua68R4-57" style="edgeStyle=orthogonalEdgeStyle;rounded=0;orthogonalLoop=1;jettySize=auto;html=1;exitX=1;exitY=0.5;exitDx=0;exitDy=0;entryX=0.5;entryY=0;entryDx=0;entryDy=0;" parent="1" source="fkQmUBQ5UeqzKAua68R4-38" target="fkQmUBQ5UeqzKAua68R4-56" edge="1">
                    <mxGeometry relative="1" as="geometry"/>
                </mxCell>
                <mxCell id="fkQmUBQ5UeqzKAua68R4-38" value="Player is prompted to escape" style="rounded=0;whiteSpace=wrap;html=1;" parent="1" vertex="1">
                    <mxGeometry x="850" y="1280" width="120" height="60" as="geometry"/>
                </mxCell>
                <mxCell id="fkQmUBQ5UeqzKAua68R4-58" style="edgeStyle=orthogonalEdgeStyle;rounded=0;orthogonalLoop=1;jettySize=auto;html=1;exitX=1;exitY=0.5;exitDx=0;exitDy=0;entryX=0.5;entryY=1;entryDx=0;entryDy=0;" parent="1" source="fkQmUBQ5UeqzKAua68R4-40" target="fkQmUBQ5UeqzKAua68R4-56" edge="1">
                    <mxGeometry relative="1" as="geometry"/>
                </mxCell>
                <mxCell id="fkQmUBQ5UeqzKAua68R4-40" value="Timer starts" style="rounded=0;whiteSpace=wrap;html=1;" parent="1" vertex="1">
                    <mxGeometry x="850" y="1455" width="120" height="60" as="geometry"/>
                </mxCell>
                <mxCell id="fkQmUBQ5UeqzKAua68R4-41" value="Player introduced to game" style="text;html=1;strokeColor=none;fillColor=none;align=center;verticalAlign=middle;whiteSpace=wrap;rounded=0;" parent="1" vertex="1">
                    <mxGeometry x="880" y="1580" width="60" height="30" as="geometry"/>
                </mxCell>
                <mxCell id="fkQmUBQ5UeqzKAua68R4-69" style="edgeStyle=orthogonalEdgeStyle;rounded=0;orthogonalLoop=1;jettySize=auto;html=1;exitX=1;exitY=0.5;exitDx=0;exitDy=0;entryX=0;entryY=0.5;entryDx=0;entryDy=0;" parent="1" source="fkQmUBQ5UeqzKAua68R4-44" target="fkQmUBQ5UeqzKAua68R4-67" edge="1">
                    <mxGeometry relative="1" as="geometry">
                        <mxPoint x="1297.5" y="1395" as="targetPoint"/>
                    </mxGeometry>
                </mxCell>
                <mxCell id="fkQmUBQ5UeqzKAua68R4-44" value="Folder" style="rounded=0;whiteSpace=wrap;html=1;movable=1;resizable=1;rotatable=1;deletable=1;editable=1;locked=0;connectable=1;" parent="1" vertex="1">
                    <mxGeometry x="1110" y="1365" width="120" height="60" as="geometry"/>
                </mxCell>
                <mxCell id="fkQmUBQ5UeqzKAua68R4-54" style="edgeStyle=orthogonalEdgeStyle;rounded=0;orthogonalLoop=1;jettySize=auto;html=1;exitX=1;exitY=0.5;exitDx=0;exitDy=0;entryX=0;entryY=0.5;entryDx=0;entryDy=0;" parent="1" source="fkQmUBQ5UeqzKAua68R4-45" target="fkQmUBQ5UeqzKAua68R4-49" edge="1">
                    <mxGeometry relative="1" as="geometry"/>
                </mxCell>
                <mxCell id="fkQmUBQ5UeqzKAua68R4-55" style="edgeStyle=orthogonalEdgeStyle;rounded=0;orthogonalLoop=1;jettySize=auto;html=1;exitX=1;exitY=0.5;exitDx=0;exitDy=0;entryX=0;entryY=0.5;entryDx=0;entryDy=0;" parent="1" source="fkQmUBQ5UeqzKAua68R4-45" target="fkQmUBQ5UeqzKAua68R4-48" edge="1">
                    <mxGeometry relative="1" as="geometry"/>
                </mxCell>
                <mxCell id="fkQmUBQ5UeqzKAua68R4-45" value="Exit" style="rounded=0;whiteSpace=wrap;html=1;movable=1;resizable=1;rotatable=1;deletable=1;editable=1;locked=0;connectable=1;fillColor=#FFFF00;" parent="1" vertex="1">
                    <mxGeometry x="1110" y="1150" width="120" height="60" as="geometry"/>
                </mxCell>
                <mxCell id="fkQmUBQ5UeqzKAua68R4-46" value="&lt;div&gt;Safe&lt;/div&gt;" style="rounded=0;whiteSpace=wrap;html=1;movable=1;resizable=1;rotatable=1;deletable=1;editable=1;locked=0;connectable=1;fillColor=#3399FF;" parent="1" vertex="1">
                    <mxGeometry x="1110" y="1580" width="120" height="60" as="geometry"/>
                </mxCell>
                <mxCell id="fkQmUBQ5UeqzKAua68R4-52" style="edgeStyle=orthogonalEdgeStyle;rounded=0;orthogonalLoop=1;jettySize=auto;html=1;exitX=1;exitY=0.5;exitDx=0;exitDy=0;entryX=0;entryY=0.5;entryDx=0;entryDy=0;" parent="1" source="fkQmUBQ5UeqzKAua68R4-48" target="fkQmUBQ5UeqzKAua68R4-51" edge="1">
                    <mxGeometry relative="1" as="geometry"/>
                </mxCell>
                <mxCell id="fkQmUBQ5UeqzKAua68R4-48" value="Have exit code&amp;nbsp;" style="rounded=1;whiteSpace=wrap;html=1;fillColor=#FFFF33;" parent="1" vertex="1">
                    <mxGeometry x="1270.55" y="1097.5" width="80" height="45" as="geometry"/>
                </mxCell>
                <mxCell id="lfsXM8BVKZFqsffCW_9Q-23" value="" style="rounded=0;whiteSpace=wrap;html=1;fontStyle=1" parent="1" vertex="1">
                    <mxGeometry x="1210" y="360" width="330" height="225" as="geometry"/>
                </mxCell>
                <mxCell id="fkQmUBQ5UeqzKAua68R4-53" style="edgeStyle=orthogonalEdgeStyle;rounded=0;orthogonalLoop=1;jettySize=auto;html=1;exitX=1;exitY=0.5;exitDx=0;exitDy=0;entryX=0;entryY=0.5;entryDx=0;entryDy=0;" parent="1" source="fkQmUBQ5UeqzKAua68R4-49" target="fkQmUBQ5UeqzKAua68R4-50" edge="1">
                    <mxGeometry relative="1" as="geometry"/>
                </mxCell>
                <mxCell id="fkQmUBQ5UeqzKAua68R4-49" value="Don't have exit code&amp;nbsp;" style="rounded=1;whiteSpace=wrap;html=1;" parent="1" vertex="1">
                    <mxGeometry x="1270.55" y="1210" width="80" height="45" as="geometry"/>
                </mxCell>
                <mxCell id="fkQmUBQ5UeqzKAua68R4-50" value="Go to main puzzle" style="rounded=1;whiteSpace=wrap;html=1;fillColor=#FF6666;" parent="1" vertex="1">
                    <mxGeometry x="1415.55" y="1210" width="80" height="45" as="geometry"/>
                </mxCell>
                <mxCell id="fkQmUBQ5UeqzKAua68R4-51" value="Entre code exit room" style="rounded=1;whiteSpace=wrap;html=1;fillColor=#FFFF33;" parent="1" vertex="1">
                    <mxGeometry x="1415.55" y="1097.5" width="80" height="45" as="geometry"/>
                </mxCell>
                <mxCell id="fkQmUBQ5UeqzKAua68R4-59" style="edgeStyle=orthogonalEdgeStyle;rounded=0;orthogonalLoop=1;jettySize=auto;html=1;exitX=1;exitY=0.5;exitDx=0;exitDy=0;entryX=0;entryY=0.5;entryDx=0;entryDy=0;" parent="1" source="fkQmUBQ5UeqzKAua68R4-56" target="fkQmUBQ5UeqzKAua68R4-45" edge="1">
                    <mxGeometry relative="1" as="geometry"/>
                </mxCell>
                <mxCell id="fkQmUBQ5UeqzKAua68R4-60" style="edgeStyle=orthogonalEdgeStyle;rounded=0;orthogonalLoop=1;jettySize=auto;html=1;exitX=1;exitY=0.5;exitDx=0;exitDy=0;entryX=0;entryY=0.5;entryDx=0;entryDy=0;" parent="1" source="fkQmUBQ5UeqzKAua68R4-56" target="fkQmUBQ5UeqzKAua68R4-44" edge="1">
                    <mxGeometry relative="1" as="geometry"/>
                </mxCell>
                <mxCell id="fkQmUBQ5UeqzKAua68R4-61" style="edgeStyle=orthogonalEdgeStyle;rounded=0;orthogonalLoop=1;jettySize=auto;html=1;exitX=1;exitY=0.5;exitDx=0;exitDy=0;entryX=0;entryY=0.5;entryDx=0;entryDy=0;" parent="1" source="fkQmUBQ5UeqzKAua68R4-56" target="fkQmUBQ5UeqzKAua68R4-46" edge="1">
                    <mxGeometry relative="1" as="geometry"/>
                </mxCell>
                <mxCell id="fkQmUBQ5UeqzKAua68R4-56" value="" style="rhombus;whiteSpace=wrap;html=1;" parent="1" vertex="1">
                    <mxGeometry x="983" y="1365" width="60" height="55" as="geometry"/>
                </mxCell>
                <mxCell id="fkQmUBQ5UeqzKAua68R4-67" value="Remember safe code&amp;nbsp;" style="rounded=1;whiteSpace=wrap;html=1;fillColor=#3399FF;" parent="1" vertex="1">
                    <mxGeometry x="1310" y="1375" width="80" height="45" as="geometry"/>
                </mxCell>
                <mxCell id="fkQmUBQ5UeqzKAua68R4-70" style="edgeStyle=orthogonalEdgeStyle;rounded=0;orthogonalLoop=1;jettySize=auto;html=1;exitX=1;exitY=0.5;exitDx=0;exitDy=0;entryX=0;entryY=0.5;entryDx=0;entryDy=0;" edge="1" parent="1" target="fkQmUBQ5UeqzKAua68R4-75">
                    <mxGeometry relative="1" as="geometry">
                        <mxPoint x="1230" y="1612.5" as="sourcePoint"/>
                    </mxGeometry>
                </mxCell>
                <mxCell id="fkQmUBQ5UeqzKAua68R4-71" style="edgeStyle=orthogonalEdgeStyle;rounded=0;orthogonalLoop=1;jettySize=auto;html=1;exitX=1;exitY=0.5;exitDx=0;exitDy=0;entryX=0;entryY=0.5;entryDx=0;entryDy=0;" edge="1" parent="1" target="fkQmUBQ5UeqzKAua68R4-73">
                    <mxGeometry relative="1" as="geometry">
                        <mxPoint x="1230" y="1612.5" as="sourcePoint"/>
                    </mxGeometry>
                </mxCell>
                <mxCell id="fkQmUBQ5UeqzKAua68R4-72" style="edgeStyle=orthogonalEdgeStyle;rounded=0;orthogonalLoop=1;jettySize=auto;html=1;exitX=1;exitY=0.5;exitDx=0;exitDy=0;entryX=0;entryY=0.5;entryDx=0;entryDy=0;" edge="1" parent="1" source="fkQmUBQ5UeqzKAua68R4-73" target="fkQmUBQ5UeqzKAua68R4-77">
                    <mxGeometry relative="1" as="geometry"/>
                </mxCell>
                <mxCell id="fkQmUBQ5UeqzKAua68R4-73" value="Have safe code&amp;nbsp;" style="rounded=1;whiteSpace=wrap;html=1;fillColor=#3399FF;" vertex="1" parent="1">
                    <mxGeometry x="1270.55" y="1530" width="80" height="45" as="geometry"/>
                </mxCell>
                <mxCell id="fkQmUBQ5UeqzKAua68R4-74" style="edgeStyle=orthogonalEdgeStyle;rounded=0;orthogonalLoop=1;jettySize=auto;html=1;exitX=1;exitY=0.5;exitDx=0;exitDy=0;entryX=0;entryY=0.5;entryDx=0;entryDy=0;" edge="1" parent="1" source="fkQmUBQ5UeqzKAua68R4-75" target="fkQmUBQ5UeqzKAua68R4-76">
                    <mxGeometry relative="1" as="geometry"/>
                </mxCell>
                <mxCell id="fkQmUBQ5UeqzKAua68R4-75" value="Don't have safe code&amp;nbsp;" style="rounded=1;whiteSpace=wrap;html=1;" vertex="1" parent="1">
                    <mxGeometry x="1270.55" y="1642.5" width="80" height="45" as="geometry"/>
                </mxCell>
                <mxCell id="fkQmUBQ5UeqzKAua68R4-76" value="Go to main puzzle" style="rounded=1;whiteSpace=wrap;html=1;fillColor=#FF6666;" vertex="1" parent="1">
                    <mxGeometry x="1415.55" y="1642.5" width="80" height="45" as="geometry"/>
                </mxCell>
                <mxCell id="fkQmUBQ5UeqzKAua68R4-77" value="Entre code open safe" style="rounded=1;whiteSpace=wrap;html=1;fillColor=#3399FF;" vertex="1" parent="1">
                    <mxGeometry x="1415.55" y="1530" width="80" height="45" as="geometry"/>
                </mxCell>
                <mxCell id="fkQmUBQ5UeqzKAua68R4-80" style="edgeStyle=orthogonalEdgeStyle;rounded=0;orthogonalLoop=1;jettySize=auto;html=1;exitX=1;exitY=0.5;exitDx=0;exitDy=0;entryX=0;entryY=0.5;entryDx=0;entryDy=0;" edge="1" parent="1">
                    <mxGeometry relative="1" as="geometry">
                        <mxPoint x="1495.55" y="1552.5" as="sourcePoint"/>
                        <mxPoint x="1563.0500000000002" y="1552.5" as="targetPoint"/>
                    </mxGeometry>
                </mxCell>
                <mxCell id="fkQmUBQ5UeqzKAua68R4-83" value="Remember exit code&amp;nbsp;" style="rounded=1;whiteSpace=wrap;html=1;fillColor=#FFFF33;" vertex="1" parent="1">
                    <mxGeometry x="1560" y="1530" width="80" height="45" as="geometry"/>
                </mxCell>
                <mxCell id="fkQmUBQ5UeqzKAua68R4-84" style="edgeStyle=orthogonalEdgeStyle;rounded=0;orthogonalLoop=1;jettySize=auto;html=1;exitX=1;exitY=0.5;exitDx=0;exitDy=0;entryX=0;entryY=0.5;entryDx=0;entryDy=0;" edge="1" parent="1" target="fkQmUBQ5UeqzKAua68R4-85">
                    <mxGeometry relative="1" as="geometry">
                        <mxPoint x="1485.45" y="1120" as="sourcePoint"/>
                    </mxGeometry>
                </mxCell>
                <mxCell id="fkQmUBQ5UeqzKAua68R4-85" value="&lt;b&gt;You win!!&lt;/b&gt;" style="rounded=1;whiteSpace=wrap;html=1;fillColor=#00CC00;" vertex="1" parent="1">
                    <mxGeometry x="1550" y="1097.5" width="80" height="45" as="geometry"/>
                </mxCell>
            </root>
        </mxGraphModel>
    </diagram>
</mxfile>